<svg xmlns="http://www.w3.org/2000/svg" width="500" height="500" version="1.0" viewBox="0 0 375 375"><defs><clipPath id="a"><path d="M110 80h154v78H110Zm0 0"/></clipPath><clipPath id="b"><path d="m263.71 157.285-76.366 76.367-76.367-76.367 76.367-76.367Zm0 0"/></clipPath><clipPath id="c"><path d="M129.93 156.793h115.5v63h-115.5Zm0 0"/></clipPath><clipPath id="d"><path d="M130.445 170.027h114.473v50.211H130.445Zm0 0"/></clipPath><clipPath id="e"><path d="M166.684 112H206v50.61h-39.316Zm0 0"/></clipPath><clipPath id="f"><path d="M178 105.61h12V116h-12Zm0 0"/></clipPath><clipPath id="g"><path d="M194 120h14.684v16H194Zm0 0"/></clipPath></defs><path fill="#fff" d="M-37.5-37.5h450v450h-450z"/><path fill="#fff" d="M-37.5-37.5h450v450h-450z"/><path fill="#fff" d="M-37.5-37.5h450v450h-450z"/><g clip-path="url(#a)"><g clip-path="url(#b)"><path fill="#ff1616" d="m110.98 157.285 76.364-76.367 76.367 76.367H110.98"/></g></g><g clip-path="url(#c)"><path fill="#ff1616" d="M129.938 156.793h115.488v63H129.938v-63"/></g><path fill="#ff1616" d="M98.945 262.418h4.078v-18.836h.07l11.15 18.836h5.202v-24.106h-4.113v18.903h-.07l-11.117-18.903h-5.2ZM121.69 262.418h4.452l1.903-5.27h10.504l1.87 5.27h4.454l-8.973-24.106h-5.168Zm7.273-8.567 4.316-11.867h.07l4.25 11.867ZM156.536 263.27c5.777 0 9.687-3.13 9.687-7.856 0-3.57-2.414-5.777-7.445-6.766l-3.672-.746c-2.789-.578-3.976-1.598-3.976-3.332 0-2.144 1.8-3.742 4.656-3.742 2.719 0 4.761 1.77 5.066 4.422l3.91-.883c-.648-4.148-4.25-6.902-8.976-6.902-5.235 0-8.84 3.058-8.84 7.582 0 3.5 2.176 5.539 6.937 6.527l3.637.781c3.195.68 4.555 1.766 4.555 3.602 0 2.246-2.074 3.945-5.438 3.945-3.707 0-6.527-2.312-6.8-5.644l-3.977.75c.543 5.062 4.93 8.261 10.676 8.261ZM168.807 262.418h4.215v-10.742h11.66v10.742h4.25v-24.106h-4.25v9.828h-11.66v-9.828h-4.215ZM200.185 262.418h4.895l9.043-24.106h-4.453l-6.97 20.059h-.066l-7.039-20.059h-4.418ZM216.368 262.418h4.215v-24.106h-4.215ZM224.527 262.418h15.434v-3.672h-11.22v-20.434h-4.214ZM242.375 262.418h15.433v-3.672H246.59v-20.434h-4.215ZM260.223 262.418h17.031v-3.535h-12.953v-7.243h11.254v-3.23H264.3v-6.563h12.613v-3.535h-16.691ZM59.219 309.668h4.219v-20.399h7.648v-3.707h-19.55v3.707h7.683ZM73.5 309.668h17.03v-3.535H77.577v-7.243h11.254v-3.23H77.577v-6.563h12.614v-3.535H73.499ZM93.285 309.668h4.078v-18.836h.07l11.149 18.836h5.203v-24.106h-4.113v18.903h-.07l-11.118-18.903h-5.199ZM116.029 309.668h4.453l1.902-5.27h10.504l1.871 5.27h4.454l-8.973-24.106h-5.168Zm7.273-8.567 4.317-11.867h.07l4.25 11.867ZM141.457 309.668h4.079v-18.836h.07l11.148 18.836h5.203v-24.106h-4.113v18.903h-.07l-11.117-18.903h-5.2ZM172.018 309.668h4.219v-20.399h7.648v-3.707h-19.55v3.707h7.683ZM195.716 310.52c5.778 0 9.688-3.13 9.688-7.856 0-3.57-2.414-5.777-7.446-6.766l-3.671-.746c-2.79-.578-3.977-1.598-3.977-3.332 0-2.144 1.8-3.742 4.656-3.742 2.719 0 4.762 1.77 5.067 4.422l3.91-.883c-.649-4.148-4.25-6.902-8.977-6.902-5.234 0-8.84 3.058-8.84 7.582 0 3.5 2.176 5.539 6.938 6.527l3.637.781c3.195.68 4.554 1.766 4.554 3.602 0 2.246-2.074 3.945-5.437 3.945-3.707 0-6.528-2.312-6.801-5.644l-3.977.75c.543 5.062 4.93 8.261 10.676 8.261ZM226.38 310.52c6.222 0 10.265-3.946 10.265-9.997v-14.96h-4.25v14.89c0 3.809-2.343 6.394-6.015 6.394-3.707 0-6.02-2.824-6.02-6.394v-14.89h-4.25v14.96c0 6.051 4.012 9.996 10.27 9.996ZM240.284 309.668h4.078v-18.836h.07l11.149 18.836h5.203v-24.106h-4.113v18.903h-.07l-11.118-18.903h-5.199ZM264.727 309.668h4.215v-24.106h-4.215ZM285.16 310.52c7.953 0 13.156-5.102 13.156-12.887 0-7.786-5.203-12.918-13.156-12.918-7.957 0-13.125 5.132-13.125 12.918 0 7.785 5.168 12.886 13.125 12.886Zm0-3.673c-5.371 0-8.91-3.671-8.91-9.214 0-5.543 3.539-9.215 8.91-9.215 5.37 0 8.906 3.672 8.906 9.215 0 5.543-3.535 9.214-8.906 9.214ZM301.41 309.668h4.077v-18.836h.07l11.149 18.836h5.203v-24.106h-4.113v18.903h-.07l-11.118-18.903h-5.199Zm0 0"/><path fill="#fff" d="M203.969 215.121h7.191V195.52h-7.191v19.601M192.469 203.578l-.375-.105v-.715l-.352-.09v-7.473l-.367-.148v-1.32l-.77-.239v-.351l-1.703-2.516-2.664-.914h-1.883l-2.66.914-1.703 2.516v.351l-.77.239v1.32l-.367.148v7.473l-.347.09v.715l-.38.105v-15.281h-8.605v-.656h2.899v-4.22h-7.723v3.684h-1.922v18.489h-5.308v12.472h5.308v.2h27.973v.625h5.816v-5.82h-4.097v-9.493M139.703 213.191h.149v.774h-.149Zm0-1.293h.149v.778h-.149Zm0-1.289h.149v.774h-.149Zm0-1.289h.149v.766h-.149Zm0-1.297h.149v.774h-.149Zm0-1.289h.149v.774h-.149Zm0-1.289h.149v.774h-.149Zm0-1.293h.149v.774h-.149Zm0-1.289h.149v.774h-.149Zm0-1.297h.149v.774h-.149Zm0-1.289h.149v.774h-.149Zm0-1.293h.149v.778h-.149Zm0-1.289h.149v.774h-.149Zm0-1.289h.149v.774h-.149Zm0-1.297h.149v.782h-.149Zm.324 18.082h.153v.774h-.153Zm0-1.293h.153v.778h-.153Zm0-1.289h.153v.774h-.153Zm0-1.289h.153v.766h-.153Zm0-1.297h.153v.774h-.153Zm0-1.289h.153v.774h-.153Zm0-1.289h.153v.774h-.153Zm0-1.293h.153v.774h-.153Zm0-1.289h.153v.774h-.153Zm0-1.297h.153v.774h-.153Zm0-1.289h.153v.774h-.153Zm0-1.293h.153v.778h-.153Zm0-1.289h.153v.774h-.153Zm0-1.289h.153v.774h-.153Zm0-1.297h.153v.782h-.153Zm.325 18.082h.152v.774h-.152Zm0-1.293h.152v.778h-.152Zm0-1.289h.152v.774h-.152Zm0-1.289h.152v.766h-.152Zm0-1.297h.152v.774h-.152Zm0-1.289h.152v.774h-.152Zm0-1.289h.152v.774h-.152Zm0-1.293h.152v.774h-.152Zm0-1.289h.152v.774h-.152Zm0-1.297h.152v.774h-.152Zm0-1.289h.152v.774h-.152Zm0-1.293h.152v.778h-.152Zm0-1.289h.152v.774h-.152Zm0-1.289h.152v.774h-.152Zm0-1.297h.152v.782h-.152Zm.328 18.082h.144v.774h-.144Zm0-1.293h.144v.778h-.144Zm0-1.289h.144v.774h-.144Zm0-1.289h.144v.766h-.144Zm0-1.297h.144v.774h-.144Zm0-1.289h.144v.774h-.144Zm0-1.289h.144v.774h-.144Zm0-1.293h.144v.774h-.144Zm0-1.289h.144v.774h-.144Zm0-1.297h.144v.774h-.144Zm0-1.289h.144v.774h-.144Zm0-1.293h.144v.778h-.144Zm0-1.289h.144v.774h-.144Zm0-1.289h.144v.774h-.144Zm0-1.297h.144v.782h-.144Zm.324 18.082h.148v.774h-.148Zm0-1.293h.148v.778h-.148Zm0-1.289h.148v.774h-.148Zm0-1.289h.148v.766h-.148Zm0-1.297h.148v.774h-.148Zm0-1.289h.148v.774h-.148Zm0-1.289h.148v.774h-.148Zm0-1.293h.148v.774h-.148Zm0-1.289h.148v.774h-.148Zm0-1.297h.148v.774h-.148Zm0-1.289h.148v.774h-.148Zm0-1.293h.148v.778h-.148Zm0-1.289h.148v.774h-.148Zm0-1.289h.148v.774h-.148Zm0-1.297h.148v.782h-.148Zm.32 18.082h.153v.774h-.153Zm0-1.293h.153v.778h-.153Zm0-1.289h.153v.774h-.153Zm0-1.289h.153v.766h-.153Zm0-1.297h.153v.774h-.153Zm0-1.289h.153v.774h-.153Zm0-1.289h.153v.774h-.153Zm0-1.293h.153v.774h-.153Zm0-1.289h.153v.774h-.153Zm0-1.297h.153v.774h-.153Zm0-1.289h.153v.774h-.153Zm0-1.293h.153v.778h-.153Zm0-1.289h.153v.774h-.153Zm0-1.289h.153v.774h-.153Zm0-1.297h.153v.782h-.153Zm.328 18.082h.145v.774h-.145Zm0-1.293h.145v.778h-.145Zm0-1.289h.145v.774h-.145Zm0-1.289h.145v.766h-.145Zm0-1.297h.145v.774h-.145Zm0-1.289h.145v.774h-.145Zm0-1.289h.145v.774h-.145Zm0-1.293h.145v.774h-.145Zm0-1.289h.145v.774h-.145Zm0-1.297h.145v.774h-.145Zm0-1.289h.145v.774h-.145Zm0-1.293h.145v.778h-.145Zm0-1.289h.145v.774h-.145Zm0-1.289h.145v.774h-.145Zm0-1.297h.145v.782h-.145Zm.325 18.082h.148v.774h-.148Zm0-1.293h.148v.778h-.148Zm0-1.289h.148v.774h-.148Zm0-1.289h.148v.766h-.148Zm0-1.297h.148v.774h-.148Zm0-1.289h.148v.774h-.148Zm0-1.289h.148v.774h-.148Zm0-1.293h.148v.774h-.148Zm0-1.289h.148v.774h-.148Zm0-1.297h.148v.774h-.148Zm0-1.289h.148v.774h-.148Zm0-1.293h.148v.778h-.148Zm0-1.289h.148v.774h-.148Zm0-1.289h.148v.774h-.148Zm0-1.297h.148v.782h-.148Zm.32 18.082h.152v.774h-.152Zm0-1.293h.152v.778h-.152Zm0-1.289h.152v.774h-.152Zm0-1.289h.152v.766h-.152Zm0-1.297h.152v.774h-.152Zm0-1.289h.152v.774h-.152Zm0-1.289h.152v.774h-.152Zm0-1.293h.152v.774h-.152Zm0-1.289h.152v.774h-.152Zm0-1.297h.152v.774h-.152Zm0-1.289h.152v.774h-.152Zm0-1.293h.152v.778h-.152Zm0-1.289h.152v.774h-.152Zm0-1.289h.152v.774h-.152Zm0-1.297h.152v.782h-.152Zm.328 18.082h.152v.774h-.152Zm0-1.293h.152v.778h-.152Zm0-1.289h.152v.774h-.152Zm0-1.289h.152v.766h-.152Zm0-1.297h.152v.774h-.152Zm0-1.289h.152v.774h-.152Zm0-1.289h.152v.774h-.152Zm0-1.293h.152v.774h-.152Zm0-1.289h.152v.774h-.152Zm0-1.297h.152v.774h-.152Zm0-1.289h.152v.774h-.152Zm0-1.293h.152v.778h-.152Zm0-1.289h.152v.774h-.152Zm0-1.289h.152v.774h-.152Zm0-1.297h.152v.782h-.152Zm.324 18.082h.149v.774h-.149Zm0-1.293h.149v.778h-.149Zm0-1.289h.149v.774h-.149Zm0-1.289h.149v.766h-.149Zm0-1.297h.149v.774h-.149Zm0-1.289h.149v.774h-.149Zm0-1.289h.149v.774h-.149Zm0-1.293h.149v.774h-.149Zm0-1.289h.149v.774h-.149Zm0-1.297h.149v.774h-.149Zm0-1.289h.149v.774h-.149Zm0-1.293h.149v.778h-.149Zm0-1.289h.149v.774h-.149Zm0-1.289h.149v.774h-.149Zm0-1.297h.149v.782h-.149Zm.324 18.082h.153v.774h-.153Zm0-1.293h.153v.778h-.153Zm0-1.289h.153v.774h-.153Zm0-1.289h.153v.766h-.153Zm0-1.297h.153v.774h-.153Zm0-1.289h.153v.774h-.153Zm0-1.289h.153v.774h-.153Zm0-1.293h.153v.774h-.153Zm0-1.289h.153v.774h-.153Zm0-1.297h.153v.774h-.153Zm0-1.289h.153v.774h-.153Zm0-1.293h.153v.778h-.153Zm0-1.289h.153v.774h-.153Zm0-1.289h.153v.774h-.153Zm0-1.297h.153v.782h-.153Zm.325 18.082h.152v.774h-.152Zm0-1.293h.152v.778h-.152Zm0-1.289h.152v.774h-.152Zm0-1.289h.152v.766h-.152Zm0-1.297h.152v.774h-.152Zm0-1.289h.152v.774h-.152Zm0-1.289h.152v.774h-.152Zm0-1.293h.152v.774h-.152Zm0-1.289h.152v.774h-.152Zm0-1.297h.152v.774h-.152Zm0-1.289h.152v.774h-.152Zm0-1.293h.152v.778h-.152Zm0-1.289h.152v.774h-.152Zm0-1.289h.152v.774h-.152Zm0-1.297h.152v.782h-.152Zm.328 18.082h.144v.774h-.144Zm0-1.293h.144v.778h-.144Zm0-1.289h.144v.774h-.144Zm0-1.289h.144v.766h-.144Zm0-1.297h.144v.774h-.144Zm0-1.289h.144v.774h-.144Zm0-1.289h.144v.774h-.144Zm0-1.293h.144v.774h-.144Zm0-1.289h.144v.774h-.144Zm0-1.297h.144v.774h-.144Zm0-1.289h.144v.774h-.144Zm0-1.293h.144v.778h-.144Zm0-1.289h.144v.774h-.144Zm0-1.289h.144v.774h-.144Zm0-1.297h.144v.782h-.144Zm.32 18.082h.152v.774h-.152Zm0-1.293h.152v.778h-.152Zm0-1.289h.152v.774h-.152Zm0-1.289h.152v.766h-.152Zm0-1.297h.152v.774h-.152Zm0-1.289h.152v.774h-.152Zm0-1.289h.152v.774h-.152Zm0-1.293h.152v.774h-.152Zm0-1.289h.152v.774h-.152Zm0-1.297h.152v.774h-.152Zm0-1.289h.152v.774h-.152Zm0-1.293h.152v.778h-.152Zm0-1.289h.152v.774h-.152Zm0-1.289h.152v.774h-.152Zm0-1.297h.152v.782h-.152Zm.324 18.082h.153v.774h-.153Zm0-1.293h.153v.778h-.153Zm0-1.289h.153v.774h-.153Zm0-1.289h.153v.766h-.153Zm0-1.297h.153v.774h-.153Zm0-1.289h.153v.774h-.153Zm0-1.289h.153v.774h-.153Zm0-1.293h.153v.774h-.153Zm0-1.289h.153v.774h-.153Zm0-1.297h.153v.774h-.153Zm0-1.289h.153v.774h-.153Zm0-1.293h.153v.778h-.153Zm0-1.289h.153v.774h-.153Zm0-1.289h.153v.774h-.153Zm0-1.297h.153v.782h-.153Zm.328 18.082h.145v.774h-.145Zm0-1.293h.145v.778h-.145Zm0-1.289h.145v.774h-.145Zm0-1.289h.145v.766h-.145Zm0-1.297h.145v.774h-.145Zm0-1.289h.145v.774h-.145Zm0-1.289h.145v.774h-.145Zm0-1.293h.145v.774h-.145Zm0-1.289h.145v.774h-.145Zm0-1.297h.145v.774h-.145Zm0-1.289h.145v.774h-.145Zm0-1.293h.145v.778h-.145Zm0-1.289h.145v.774h-.145Zm0-1.289h.145v.774h-.145Zm0-1.297h.145v.782h-.145Zm.325 18.082h.148v.774h-.148Zm0-1.293h.148v.778h-.148Zm0-1.289h.148v.774h-.148Zm0-1.289h.148v.766h-.148Zm0-1.297h.148v.774h-.148Zm0-1.289h.148v.774h-.148Zm0-1.289h.148v.774h-.148Zm0-1.293h.148v.774h-.148Zm0-1.289h.148v.774h-.148Zm0-1.297h.148v.774h-.148Zm0-1.289h.148v.774h-.148Zm0-1.293h.148v.778h-.148Zm0-1.289h.148v.774h-.148Zm0-1.289h.148v.774h-.148Zm0-1.297h.148v.782h-.148Zm.328 18.082h.144v.774h-.144Zm0-1.293h.144v.778h-.144Zm0-1.289h.144v.774h-.144Zm0-1.289h.144v.766h-.144Zm0-1.297h.144v.774h-.144Zm0-1.289h.144v.774h-.144Zm0-1.289h.144v.774h-.144Zm0-1.293h.144v.774h-.144Zm0-1.289h.144v.774h-.144Zm0-1.297h.144v.774h-.144Zm0-1.289h.144v.774h-.144Zm0-1.293h.144v.778h-.144Zm0-1.289h.144v.774h-.144Zm0-1.289h.144v.774h-.144Zm0-1.297h.144v.782h-.144Zm.32 18.082h.152v.774h-.152Zm0-1.293h.152v.778h-.152Zm0-1.289h.152v.774h-.152Zm0-1.289h.152v.766h-.152Zm0-1.297h.152v.774h-.152Zm0-1.289h.152v.774h-.152Zm0-1.289h.152v.774h-.152Zm0-1.293h.152v.774h-.152Zm0-1.289h.152v.774h-.152Zm0-1.297h.152v.774h-.152Zm0-1.289h.152v.774h-.152Zm0-1.293h.152v.778h-.152Zm0-1.289h.152v.774h-.152Zm0-1.289h.152v.774h-.152Zm0-1.297h.152v.782h-.152Zm.324 18.082h.149v.774h-.149Zm0-1.293h.149v.778h-.149Zm0-1.289h.149v.774h-.149Zm0-1.289h.149v.766h-.149Zm0-1.297h.149v.774h-.149Zm0-1.289h.149v.774h-.149Zm0-1.289h.149v.774h-.149Zm0-1.293h.149v.774h-.149Zm0-1.289h.149v.774h-.149Zm0-1.297h.149v.774h-.149Zm0-1.289h.149v.774h-.149Zm0-1.293h.149v.778h-.149Zm0-1.289h.149v.774h-.149Zm0-1.289h.149v.774h-.149Zm0-1.297h.149v.782h-.149Zm.328 18.082h.149v.774h-.149Zm0-1.293h.149v.778h-.149Zm0-1.289h.149v.774h-.149Zm0-1.289h.149v.766h-.149Zm0-1.297h.149v.774h-.149Zm0-1.289h.149v.774h-.149Zm0-1.289h.149v.774h-.149Zm0-1.293h.149v.774h-.149Zm0-1.289h.149v.774h-.149Zm0-1.297h.149v.774h-.149Zm0-1.289h.149v.774h-.149Zm0-1.293h.149v.778h-.149Zm0-1.289h.149v.774h-.149Zm0-1.289h.149v.774h-.149Zm0-1.297h.149v.782h-.149Zm.32 18.082h.153v.774h-.152Zm0-1.293h.153v.778h-.152Zm0-1.289h.153v.774h-.152Zm0-1.289h.153v.766h-.152Zm0-1.297h.153v.774h-.152Zm0-1.289h.153v.774h-.152Zm0-1.289h.153v.774h-.152Zm0-1.293h.153v.774h-.152Zm0-1.289h.153v.774h-.152Zm0-1.297h.153v.774h-.152Zm0-1.289h.153v.774h-.152Zm0-1.293h.153v.778h-.152Zm0-1.289h.153v.774h-.152Zm0-1.289h.153v.774h-.152Zm0-1.297h.153v.782h-.152Zm.325 18.082h.148v.774h-.148Zm0-1.293h.148v.778h-.148Zm0-1.289h.148v.774h-.148Zm0-1.289h.148v.766h-.148Zm0-1.297h.148v.774h-.148Zm0-1.289h.148v.774h-.148Zm0-1.289h.148v.774h-.148Zm0-1.293h.148v.774h-.148Zm0-1.289h.148v.774h-.148Zm0-1.297h.148v.774h-.148Zm0-1.289h.148v.774h-.148Zm0-1.293h.148v.778h-.148Zm0-1.289h.148v.774h-.148Zm0-1.289h.148v.774h-.148Zm0-1.297h.148v.782h-.148Zm.328 18.082h.149v.774h-.149Zm0-1.293h.149v.778h-.149Zm0-1.289h.149v.774h-.149Zm0-1.289h.149v.766h-.149Zm0-1.297h.149v.774h-.149Zm0-1.289h.149v.774h-.149Zm0-1.289h.149v.774h-.149Zm0-1.293h.149v.774h-.149Zm0-1.289h.149v.774h-.149Zm0-1.297h.149v.774h-.149Zm0-1.289h.149v.774h-.149Zm0-1.293h.149v.778h-.149Zm0-1.289h.149v.774h-.149Zm0-1.289h.149v.774h-.149Zm0-1.297h.149v.782h-.149Zm.32 18.082h.153v.774h-.153Zm0-1.293h.153v.778h-.153Zm0-1.289h.153v.774h-.153Zm0-1.289h.153v.766h-.153Zm0-1.297h.153v.774h-.153Zm0-1.289h.153v.774h-.153Zm0-1.289h.153v.774h-.153Zm0-1.293h.153v.774h-.153Zm0-1.289h.153v.774h-.153Zm0-1.297h.153v.774h-.153Zm0-1.289h.153v.774h-.153Zm0-1.293h.153v.778h-.153Zm0-1.289h.153v.774h-.153Zm0-1.289h.153v.774h-.153Zm0-1.297h.153v.782h-.153Zm.329 18.082h.152v.774h-.152Zm0-1.293h.152v.778h-.152Zm0-1.289h.152v.774h-.152Zm0-1.289h.152v.766h-.152Zm0-1.297h.152v.774h-.152Zm0-1.289h.152v.774h-.152Zm0-1.289h.152v.774h-.152Zm0-1.293h.152v.774h-.152Zm0-1.289h.152v.774h-.152Zm0-1.297h.152v.774h-.152Zm0-1.289h.152v.774h-.152Zm0-1.293h.152v.778h-.152Zm0-1.289h.152v.774h-.152Zm0-1.289h.152v.774h-.152Zm0-1.297h.152v.782h-.152Zm.324 18.082h.148v.774h-.148Zm0-1.293h.148v.778h-.148Zm0-1.289h.148v.774h-.148Zm0-1.289h.148v.766h-.148Zm0-1.297h.148v.774h-.148Zm0-1.289h.148v.774h-.148Zm0-1.289h.148v.774h-.148Zm0-1.293h.148v.774h-.148Zm0-1.289h.148v.774h-.148Zm0-1.297h.148v.774h-.148Zm0-1.289h.148v.774h-.148Zm0-1.293h.148v.778h-.148Zm0-1.289h.148v.774h-.148Zm0-1.289h.148v.774h-.148Zm0-1.297h.148v.782h-.148Zm.32 18.082h.152v.774h-.152Zm0-1.293h.152v.778h-.152Zm0-1.289h.152v.774h-.152Zm0-1.289h.152v.766h-.152Zm0-1.297h.152v.774h-.152Zm0-1.289h.152v.774h-.152Zm0-1.289h.152v.774h-.152Zm0-1.293h.152v.774h-.152Zm0-1.289h.152v.774h-.152Zm0-1.297h.152v.774h-.152Zm0-1.289h.152v.774h-.152Zm0-1.293h.152v.778h-.152Zm0-1.289h.152v.774h-.152Zm0-1.289h.152v.774h-.152Zm0-1.297h.152v.782h-.152Zm.328 18.082h.153v.774h-.153Zm0-1.293h.153v.778h-.153Zm0-1.289h.153v.774h-.153Zm0-1.289h.153v.766h-.153Zm0-1.297h.153v.774h-.153Zm0-1.289h.153v.774h-.153Zm0-1.289h.153v.774h-.153Zm0-1.293h.153v.774h-.153Zm0-1.289h.153v.774h-.153Zm0-1.297h.153v.774h-.153Zm0-1.289h.153v.774h-.153Zm0-1.293h.153v.778h-.153Zm0-1.289h.153v.774h-.153Zm0-1.289h.153v.774h-.153Zm0-1.297h.153v.782h-.153Zm.324 18.082h.149v.774h-.149Zm0-1.293h.149v.778h-.149Zm0-1.289h.149v.774h-.149Zm0-1.289h.149v.766h-.149Zm0-1.297h.149v.774h-.149Zm0-1.289h.149v.774h-.149Zm0-1.289h.149v.774h-.149Zm0-1.293h.149v.774h-.149Zm0-1.289h.149v.774h-.149Zm0-1.297h.149v.774h-.149Zm0-1.289h.149v.774h-.149Zm0-1.293h.149v.778h-.149Zm0-1.289h.149v.774h-.149Zm0-1.289h.149v.774h-.149Zm0-1.297h.149v.782h-.149Zm.329 18.082h.144v.774h-.144Zm0-1.293h.144v.778h-.144Zm0-1.289h.144v.774h-.144Zm0-1.289h.144v.766h-.144Zm0-1.297h.144v.774h-.144Zm0-1.289h.144v.774h-.144Zm0-1.289h.144v.774h-.144Zm0-1.293h.144v.774h-.144Zm0-1.289h.144v.774h-.144Zm0-1.297h.144v.774h-.144Zm0-1.289h.144v.774h-.144Zm0-1.293h.144v.778h-.144Zm0-1.289h.144v.774h-.144Zm0-1.289h.144v.774h-.144Zm0-1.297h.144v.782h-.144Zm.32 18.082h.152v.774h-.152Zm0-1.293h.152v.778h-.152Zm0-1.289h.152v.774h-.152Zm0-1.289h.152v.766h-.152Zm0-1.297h.152v.774h-.152Zm0-1.289h.152v.774h-.152Zm0-1.289h.152v.774h-.152Zm0-1.293h.152v.774h-.152Zm0-1.289h.152v.774h-.152Zm0-1.297h.152v.774h-.152Zm0-1.289h.152v.774h-.152Zm0-1.293h.152v.778h-.152Zm0-1.289h.152v.774h-.152Zm0-1.289h.152v.774h-.152Zm0-1.297h.152v.782h-.152Zm.324 18.082h.152v.774h-.152Zm0-1.293h.152v.778h-.152Zm0-1.289h.152v.774h-.152Zm0-1.289h.152v.766h-.152Zm0-1.297h.152v.774h-.152Zm0-1.289h.152v.774h-.152Zm0-1.289h.152v.774h-.152Zm0-1.293h.152v.774h-.152Zm0-1.289h.152v.774h-.152Zm0-1.297h.152v.774h-.152Zm0-1.289h.152v.774h-.152Zm0-1.293h.152v.778h-.152Zm0-1.289h.152v.774h-.152Zm0-1.289h.152v.774h-.152Zm0-1.297h.152v.782h-.152Zm.328 18.082h.149v.774h-.149Zm0-1.293h.149v.778h-.149Zm0-1.289h.149v.774h-.149Zm0-1.289h.149v.766h-.149Zm0-1.297h.149v.774h-.149Zm0-1.289h.149v.774h-.149Zm0-1.289h.149v.774h-.149Zm0-1.293h.149v.774h-.149Zm0-1.289h.149v.774h-.149Zm0-1.297h.149v.774h-.149Zm0-1.289h.149v.774h-.149Zm0-1.293h.149v.778h-.149Zm0-1.289h.149v.774h-.149Zm0-1.289h.149v.774h-.149Zm0-1.297h.149v.782h-.149Zm-11.394 22.735h.504v-2.223h1.8v2.223h.473v-2.223h1.8v2.223h.473v-2.223h1.797v2.223h.477v-2.223h1.797v2.223h.472v-2.223h1.801v2.223h.504v-24.508h-11.898v24.508M236.074 207.305a.316.316 0 0 1 .172-.067c.016 0 .027.008.027.008.004.004.02.024.028.113Zm-8.344 9.07h-1.468l-.125-3.64h1.718Zm-10.03-9.016c0-.09.015-.109.027-.113 0 0 .007-.008.023-.008.047 0 .129.028.176.067Zm20.179 10.141h-.438v-.277h-.617v-.368h-.304l-.211-6.214s-.016-.106.027-.176c.012-.028.027-.043.055-.05.105-.056.12-.2.12-.2v-.297l-.175-.215v-.574h.047v-.121h-.047v-.82h.195v-.348l.028-.086.113-.297-.258-.066v-.004c.008-.047 0-.098-.008-.149-.008-.05-.011-.097.008-.12.04-.048.047-.098.055-.141v-.02c.004-.012.011-.012.031-.016.016 0 .035 0 .047-.027a.03.03 0 0 0 .004-.039.057.057 0 0 0-.02-.031s-.02-.008-.047-.008a.065.065 0 0 0-.058.031c-.016.008-.02.016-.02.016-.008 0-.011-.016-.015-.028-.008-.015-.012-.035-.024-.046-.008-.016-.015-.032-.015-.043.007-.004.015-.012.027-.012.02-.004.059-.024.062-.05.004-.02-.004-.036-.03-.06a.212.212 0 0 0-.063-.035c-.012-.007-.024-.011-.024-.015v-.012s.012-.016.008-.02c-.008-.007-.008-.007-.012-.007-.015 0-.035.023-.047.047-.011.027-.03.039-.035.027-.008-.004-.011-.012-.008-.031 0-.016.012-.036.024-.059.008-.016.02-.031.016-.05 0-.012-.016-.024-.04-.028-.066-.027-.125.004-.164.09-.004.004-.093.183-.066.308.02.121.027.172-.02.196l-.015.011c-.024.016-.067.036-.074.043 0-.007 0-.011.007-.023.032-.05.051-.152.016-.211-.016-.035-.047-.055-.082-.05-.043.003-.07.015-.078.042-.016.024-.008.063.02.11.011.015.015.015.019.015.008 0 .012 0 .012-.004.004-.011.004-.023 0-.027v-.004c-.004-.012-.016-.043-.004-.059.004-.011.015-.015.031-.015h.004c.008 0 .023 0 .031.015.012.016.016.043.012.082a.281.281 0 0 1-.059.133c-.015.02-.03.04-.03.063s0 .039.003.054l-8.258-2.12v-.239h-.066s.035-.074-.028-.14c-.062-.075-.16-.196-.152-.266.012-.063-.047-.004-.055-.086 0-.086.09-.414-.234-.48-.32.066-.238.394-.238.48-.004.082-.063.023-.059.086.012.07-.082.191-.144.265-.067.067-.028.141-.028.141h-.074v.238l-4.793 1.23v-17.616h-3.234v18.449l-.227.058c0-.015.004-.03 0-.054 0-.024-.012-.043-.027-.063-.02-.031-.051-.066-.055-.133a.126.126 0 0 1 .008-.082c.012-.015.027-.015.031-.015h.008c.016 0 .023.004.031.015.008.016-.008.047-.008.059l-.004.004c0 .004 0 .016.004.027 0 .004.008.004.012.004s.012 0 .02-.015c.027-.047.035-.086.023-.11-.012-.027-.039-.039-.078-.043-.043-.004-.07.016-.086.051-.031.059-.016.16.016.21.004.013.011.017.011.024-.015-.007-.054-.027-.078-.043l-.011-.011c-.047-.024-.043-.075-.02-.196.02-.125-.07-.304-.07-.308-.043-.086-.094-.117-.164-.09-.02.004-.036.016-.04.027-.007.02.008.035.02.051.012.024.02.043.02.059 0 .02-.004.027-.004.03-.012.013-.028 0-.035-.026-.012-.024-.04-.047-.051-.047-.004 0-.008 0-.008.007-.008.004 0 .02.004.02v.012c0 .004-.012.008-.02.015a.22.22 0 0 0-.066.036c-.024.023-.035.039-.031.058.007.027.043.047.066.05.008 0 .02.009.02.013.004.011 0 .027-.016.043-.012.011-.016.03-.02.046 0 .012-.007.028-.011.028 0 0-.008-.008-.024-.016-.015-.023-.035-.031-.062-.031-.02 0-.04.008-.04.008s-.023.011-.027.031c-.007.012 0 .027.004.04.012.026.04.026.055.026.02.004.023.004.023.016 0 .004 0 .016.008.02a.27.27 0 0 0 .051.14c.023.024.016.07.004.121-.004.051-.008.102-.004.149v.004l-.258.066.11.297.035.086v.347h.191v.82h-.047v.122h.047v.574l-.168.215v.297s.012.144.117.2c.02.007.043.023.051.05.043.07.028.176.028.176l-.215 6.214h-.301v.368h-.613v.277h-.438v.316h2.309v1.075h3.234v-1.075h16.215v-.316"/><g clip-path="url(#d)"><path fill="#d9d9d9" d="M158.598 190.238h.336v.742h-.336Zm0-1.254h.336v.743h-.336Zm0-2.664h.336v2.29h-.336Zm.672 3.918h.335v.742h-.335Zm0-1.254h.335v.743h-.335Zm0-2.664h.335v2.29h-.335Zm1.003 5.164v.32l-.332-.124v-.196Zm-.332-1.246h.332v.742h-.332Zm0-1.254h.332v.743h-.332Zm0-2.664h.332v2.29h-.332Zm1.004 6.418v.742h-.28v-.656h-.048v-.086Zm-.328-1.254h.328v.746h-.328Zm0-1.246h.328v.742h-.328Zm0-1.254h.328v.743h-.328Zm0-2.664h.328v2.29h-.328Zm1.004 28.934v.637h-.332v-.637Zm-.332-1.25h.332v.746h-.332Zm0-1.25h.332v.742h-.332Zm0-1.25h.332v.742h-.332Zm0-1.254h.332v.742h-.332Zm0-1.254h.332v.742h-.332Zm0-1.25h.332v.746h-.332Zm0-1.25h.332v.742h-.332Zm0-1.25h.332v.746h-.332Zm0-1.246h.332v.738h-.332Zm0-1.254h.332v.742h-.332Zm0-1.254h.332v.742h-.332Zm0-1.25h.332v.742h-.332Zm0-1.254h.332v.746h-.332Zm0-1.246h.332v.742h-.332Zm0-1.254h.332v.746h-.332Zm0-1.254h.332v.75h-.332Zm0-1.246h.332v.742h-.332Zm0-1.25h.332v.742h-.332Zm0-1.254h.332v.746h-.332Zm0-1.246h.332v.742h-.332Zm0-1.254h.332v.743h-.332Zm0-2.664h.332v2.29h-.332Zm0-1.886h.332v1.336h-.332Zm1.004 30.82v.637h-.332v-.637Zm-.332-1.25h.332v.746h-.332Zm0-1.25h.332v.742h-.332Zm0-1.25h.332v.742h-.332Zm0-1.254h.332v.742h-.332Zm0-1.254h.332v.742h-.332Zm0-1.25h.332v.746h-.332Zm0-1.25h.332v.742h-.332Zm0-1.25h.332v.746h-.332Zm0-1.246h.332v.738h-.332Zm0-1.254h.332v.742h-.332Zm0-1.254h.332v.742h-.332Zm0-1.25h.332v.742h-.332Zm0-1.254h.332v.746h-.332Zm0-1.246h.332v.742h-.332Zm0-1.254h.332v.746h-.332Zm0-1.254h.332v.75h-.332Zm0-1.246h.332v.742h-.332Zm0-1.25h.332v.742h-.332Zm0-1.254h.332v.746h-.332Zm0-1.246h.332v.742h-.332Zm0-1.254h.332v.743h-.332Zm0-2.664h.332v2.29h-.332Zm0-1.886h.332v1.336h-.332Zm1.008 30.82v.637h-.34v-.637Zm-.34-1.25h.34v.746h-.34Zm0-1.25h.34v.742h-.34Zm0-1.25h.34v.742h-.34Zm0-1.254h.34v.742h-.34Zm0-1.254h.34v.742h-.34Zm0-1.25h.34v.746h-.34Zm0-1.25h.34v.742h-.34Zm0-1.25h.34v.746h-.34Zm0-1.246h.34v.738h-.34Zm0-1.254h.34v.742h-.34Zm0-1.254h.34v.742h-.34Zm0-1.25h.34v.742h-.34Zm0-1.254h.34v.746h-.34Zm0-1.246h.34v.742h-.34Zm0-1.254h.34v.746h-.34Zm0-1.254h.34v.75h-.34Zm0-1.246h.34v.742h-.34Zm0-1.25h.34v.742h-.34Zm0-1.254h.34v.746h-.34Zm0-1.246h.34v.742h-.34Zm0-1.254h.34v.743h-.34Zm0-2.664h.34v2.29h-.34Zm0-1.886h.34v1.336h-.34Zm1.012 30.82v.637h-.336v-.637Zm-.336-1.25h.336v.746h-.336Zm0-1.25h.336v.742h-.336Zm0-1.25h.336v.742h-.336Zm0-1.254h.336v.742h-.336Zm0-1.254h.336v.742h-.336Zm0-1.25h.336v.746h-.336Zm0-1.25h.336v.742h-.336Zm0-1.25h.336v.746h-.336Zm0-1.246h.336v.738h-.336Zm0-1.254h.336v.742h-.336Zm0-1.254h.336v.742h-.336Zm0-1.25h.336v.742h-.336Zm0-1.254h.336v.746h-.336Zm0-1.246h.336v.742h-.336Zm0-1.254h.336v.746h-.336Zm0-1.254h.336v.75h-.336Zm0-1.246h.336v.742h-.336Zm0-1.25h.336v.742h-.336Zm0-1.254h.336v.746h-.336Zm0-1.246h.336v.742h-.336Zm0-1.254h.336v.743h-.336Zm0-2.664h.336v2.29h-.336Zm0-1.886h.336v1.336h-.336Zm1.004 30.82v.637h-.332v-.637Zm-.332-1.25h.332v.746h-.332Zm0-1.25h.332v.742h-.332Zm0-1.25h.332v.742h-.332Zm0-1.254h.332v.742h-.332Zm0-1.254h.332v.742h-.332Zm0-1.25h.332v.746h-.332Zm0-1.25h.332v.742h-.332Zm0-1.25h.332v.746h-.332Zm0-1.246h.332v.738h-.332Zm0-1.254h.332v.742h-.332Zm0-1.254h.332v.742h-.332Zm0-1.25h.332v.742h-.332Zm0-1.254h.332v.746h-.332Zm0-1.246h.332v.742h-.332Zm0-1.254h.332v.746h-.332Zm0-1.254h.332v.75h-.332Zm0-1.246h.332v.742h-.332Zm0-1.25h.332v.742h-.332Zm0-1.254h.332v.746h-.332Zm0-1.246h.332v.742h-.332Zm0-1.254h.332v.743h-.332Zm0-2.664h.332v2.29h-.332Zm0-1.894h.332v1.344h-.332Zm1.003 30.828v.637h-.328v-.637Zm-.328-1.25h.328v.746h-.328Zm0-1.25h.328v.742h-.328Zm0-1.25h.328v.742h-.328Zm0-1.254h.328v.742h-.328Zm0-1.254h.328v.742h-.328Zm0-1.25h.328v.746h-.328Zm0-1.25h.328v.742h-.328Zm0-1.25h.328v.746h-.328Zm0-1.246h.328v.738h-.328Zm0-1.254h.328v.742h-.328Zm0-1.254h.328v.742h-.328Zm0-1.25h.328v.742h-.328Zm0-1.254h.328v.746h-.328Zm0-1.246h.328v.742h-.328Zm0-1.254h.328v.746h-.328Zm0-1.254h.328v.75h-.328Zm0-1.246h.328v.742h-.328Zm0-1.25h.328v.742h-.328Zm0-1.254h.328v.746h-.328Zm0-1.246h.328v.742h-.328Zm0-1.254h.328v.743h-.328Zm0-2.664h.328v2.29h-.328Zm0-1.886h.328v1.336h-.328Zm1.004 30.82v.637h-.332v-.637Zm-.332-1.25h.332v.746h-.332Zm0-1.25h.332v.742h-.332Zm0-1.25h.332v.742h-.332Zm0-1.254h.332v.742h-.332Zm0-1.254h.332v.742h-.332Zm0-1.25h.332v.746h-.332Zm0-1.25h.332v.742h-.332Zm0-1.25h.332v.746h-.332Zm0-1.246h.332v.738h-.332Zm0-1.254h.332v.742h-.332Zm0-1.254h.332v.742h-.332Zm0-1.25h.332v.742h-.332Zm0-1.254h.332v.746h-.332Zm0-1.246h.332v.742h-.332Zm0-1.254h.332v.746h-.332Zm0-1.254h.332v.75h-.332Zm0-1.246h.332v.742h-.332Zm0-1.25h.332v.742h-.332Zm0-1.254h.332v.746h-.332Zm0-1.246h.332v.742h-.332Zm0-1.254h.332v.743h-.332Zm0-2.664h.332v2.29h-.332Zm0-1.886h.332v1.336h-.332Zm1.004 30.82v.637h-.332v-.637Zm-.332-1.25h.332v.746h-.332Zm0-1.25h.332v.742h-.332Zm0-1.25h.332v.742h-.332Zm0-1.254h.332v.742h-.332Zm0-1.254h.332v.742h-.332Zm0-1.25h.332v.746h-.332Zm0-1.25h.332v.742h-.332Zm0-1.25h.332v.746h-.332Zm0-1.246h.332v.738h-.332Zm0-1.254h.332v.742h-.332Zm0-1.254h.332v.742h-.332Zm0-1.25h.332v.742h-.332Zm0-1.254h.332v.746h-.332Zm0-1.246h.332v.742h-.332Zm0-1.254h.332v.746h-.332Zm0-1.254h.332v.75h-.332Zm0-1.246h.332v.742h-.332Zm0-1.25h.332v.742h-.332Zm0-1.254h.332v.746h-.332Zm0-1.246h.332v.742h-.332Zm0-1.254h.332v.743h-.332Zm0-2.664h.332v2.29h-.332Zm0-1.886h.332v1.336h-.332Zm1.008 30.82v.637h-.34v-.637Zm-.34-1.25h.34v.746h-.34Zm0-1.25h.34v.742h-.34Zm0-1.25h.34v.742h-.34Zm0-1.254h.34v.742h-.34Zm0-1.254h.34v.742h-.34Zm0-1.25h.34v.746h-.34Zm0-1.25h.34v.742h-.34Zm0-1.25h.34v.746h-.34Zm0-1.246h.34v.738h-.34Zm0-1.254h.34v.742h-.34Zm0-1.254h.34v.742h-.34Zm0-1.25h.34v.742h-.34Zm0-1.254h.34v.746h-.34Zm0-1.246h.34v.742h-.34Zm0-1.254h.34v.746h-.34Zm0-1.254h.34v.75h-.34Zm0-1.246h.34v.742h-.34Zm0-1.25h.34v.742h-.34Zm0-1.254h.34v.746h-.34Zm0-1.246h.34v.742h-.34Zm0-1.254h.34v.743h-.34Zm0-2.664h.34v2.29h-.34Zm0-1.886h.34v1.336h-.34Zm1.012 30.82v.637h-.336v-.637Zm-.336-1.25h.336v.746h-.336Zm0-1.25h.336v.742h-.336Zm0-1.25h.336v.742h-.336Zm0-1.254h.336v.742h-.336Zm0-1.254h.336v.742h-.336Zm0-1.25h.336v.746h-.336Zm0-1.25h.336v.742h-.336Zm0-1.25h.336v.746h-.336Zm0-1.246h.336v.738h-.336Zm0-1.254h.336v.742h-.336Zm0-1.254h.336v.742h-.336Zm0-1.25h.336v.742h-.336Zm0-1.254h.336v.746h-.336Zm0-1.246h.336v.742h-.336Zm0-1.254h.336v.746h-.336Zm0-1.254h.336v.75h-.336Zm0-1.246h.336v.742h-.336Zm0-1.25h.336v.742h-.336Zm0-1.254h.336v.746h-.336Zm0-1.246h.336v.742h-.336Zm0-1.254h.336v.743h-.336Zm0-2.664h.336v2.29h-.336Zm1.004 28.934v.637h-.332v-.637Zm-.332-1.25h.332v.746h-.332Zm0-1.25h.332v.742h-.332Zm0-1.25h.332v.742h-.332Zm0-1.254h.332v.742h-.332Zm0-1.254h.332v.742h-.332Zm0-1.25h.332v.746h-.332Zm0-1.25h.332v.742h-.332Zm0-1.25h.332v.746h-.332Zm0-1.246h.332v.738h-.332Zm0-1.254h.332v.742h-.332Zm0-1.254h.332v.742h-.332Zm0-1.25h.332v.742h-.332Zm0-1.254h.332v.746h-.332Zm0-1.246h.332v.742h-.332Zm0-1.254h.332v.746h-.332Zm0-1.254h.332v.75h-.332Zm0-1.246h.332v.742h-.332Zm0-1.25h.332v.742h-.332Zm0-1.254h.332v.746h-.332Zm0-1.246h.332v.742h-.332Zm0-1.254h.332v.743h-.332Zm0-2.664h.332v2.29h-.332Zm.828 0v1.395h-.156v-1.395Zm16.078 2.16 2.406-2.82.512.113.508-.113 2.406 2.82h.41l2.403 3.032h.363l.273.347-.02.567-.253-.317h-.363l-2.403-3.03h-.41l-2.406-2.821-.508.117-.512-.117-2.406 2.82h-.414l-.074.098v-.602l.074-.094Zm41.164 6.368v.726c-.64-.484-1.613-.906-3.082-.906-1.535 0-2.535.469-3.172.984v-.73c.633-.496 1.633-.945 3.172-.945 1.469 0 2.441.406 3.082.87Zm3.484 21.57h.23v.41h-.23Zm0-1.148h.23v.41h-.23Zm0-1.153h.23v.41h-.23Zm0-1.152h.23v.41h-.23Zm0-1.153h.23v.41h-.23Zm0-1.152h.23v.41h-.23Zm0-1.152h.23v.41h-.23Zm0-1.149h.23v.41h-.23Zm0-1.152h.23v.41h-.23Zm0-1.152h.23v.41h-.23Zm0-1.153h.23v.41h-.23Zm0-1.152h.23v.41h-.23Zm0-1.152h.23v.41h-.23Zm0-1.153h.23v.418h-.23Zm0-1.148h.23v.414h-.23Zm0-1.152h.23v.414h-.23Zm0-1.153h.23v.41h-.23Zm0-1.152h.23v.41h-.23Zm0-1.153h.23v.41h-.23Zm0-1.152h.23v.41h-.23Zm0-1.144h.23v.41h-.23Zm0-1.153h.23v.41h-.23Zm0-1.152h.23v.41h-.23Zm0-1.152h.23v.41h-.23Zm0-1.157h.23v.414h-.23Zm2.715 27.641h2.504v.41h-2.504Zm0-1.148h2.504v.41h-2.504Zm0-1.153h2.504v.41h-2.504Zm0-1.152h2.504v.41h-2.504Zm0-1.153h2.504v.41h-2.504Zm0-1.152h2.504v.41h-2.504Zm0-1.152h2.504v.41h-2.504Zm0-1.149h2.504v.41h-2.504Zm0-1.152h2.504v.41h-2.504Zm0-1.152h2.504v.41h-2.504Zm0-1.153h2.504v.41h-2.504Zm0-1.152h2.504v.41h-2.504Zm0-1.152h2.504v.41h-2.504Zm0-1.153h2.504v.418h-2.504Zm0-1.148h2.504v.414h-2.504Zm0-1.152h2.504v.414h-2.504Zm0-1.153h2.504v.41h-2.504Zm0-1.152h2.504v.41h-2.504Zm0-1.153h2.504v.41h-2.504Zm0-1.152h2.504v.41h-2.504Zm0-1.144h2.504v.41h-2.504Zm0-1.153h2.504v.41h-2.504Zm0-1.152h2.504v.41h-2.504Zm0-1.152h2.504v.41h-2.504Zm0-1.157h2.504v.414h-2.504Zm-6.199 8.211c-.64-.457-1.613-.851-3.082-.851-1.535 0-2.535.441-3.172.925v-.73c.633-.469 1.633-.89 3.172-.89 1.469 0 2.441.382 3.082.82ZM223 212.27c-1.535 0-2.535.144-3.172.3v-.715c.637-.175 1.637-.332 3.172-.332 1.469 0 2.441.141 3.082.305v.715c-.64-.145-1.613-.273-3.082-.273Zm0 1.468c-1.535 0-2.535.117-3.172.242v-.714c.637-.149 1.637-.278 3.172-.278 1.469 0 2.441.121 3.082.258v.715c-.64-.117-1.613-.223-3.082-.223Zm0 1.469c-1.535 0-2.535.086-3.172.184v-.715c.637-.121 1.637-.227 3.172-.227 1.469 0 2.441.094 3.082.207v.719c-.64-.09-1.613-.168-3.082-.168Zm-3.172.879c.637-.094 1.637-.172 3.172-.172 1.469 0 2.441.07 3.082.156v.723c-.64-.066-1.613-.121-3.082-.121-1.535 0-2.535.062-3.172.129Zm3.172-18.48c-1.535 0-2.535.414-3.172.863v-.723c.633-.441 1.633-.84 3.172-.84 1.469 0 2.441.356 3.082.774v.718c-.64-.425-1.613-.793-3.082-.793Zm0 1.46c-1.535 0-2.535.391-3.172.813v-.723c.637-.414 1.633-.789 3.172-.789 1.469 0 2.441.336 3.082.727v.722c-.64-.398-1.613-.75-3.082-.75Zm0 1.47c-1.535 0-2.535.362-3.172.753v-.723c.637-.39 1.633-.742 3.172-.742 1.469 0 2.441.32 3.082.684v.722c-.64-.367-1.613-.695-3.082-.695Zm0 1.468c-1.535 0-2.535.332-3.172.695v-.722c.637-.356 1.633-.688 3.172-.688 1.469 0 2.441.293 3.082.637v.719c-.64-.34-1.613-.641-3.082-.641Zm0 2.93c-1.535 0-2.535.28-3.172.586v-.723c.637-.305 1.637-.582 3.172-.582 1.469 0 2.441.25 3.082.543v.715c-.64-.286-1.613-.54-3.082-.54Zm0 1.468c-1.535 0-2.535.254-3.172.528v-.723c.637-.277 1.637-.531 3.172-.531 1.469 0 2.441.234 3.082.496v.715c-.64-.258-1.613-.485-3.082-.485Zm3.082 4.727c-.64-.172-1.613-.328-3.082-.328-1.535 0-2.535.176-3.172.36v-.716c.637-.199 1.637-.386 3.172-.386 1.469 0 2.441.171 3.082.355Zm0-1.41c-.64-.207-1.613-.383-3.082-.383-1.535 0-2.535.2-3.172.414v-.715c.637-.226 1.637-.433 3.172-.433 1.469 0 2.441.183 3.082.394Zm0-1.414c-.64-.235-1.613-.434-3.082-.434-1.535 0-2.535.223-3.172.469v-.715c.637-.254 1.637-.484 3.172-.484 1.469 0 2.441.203 3.082.441Zm0-4.243c-.64-.316-1.613-.59-3.082-.59-1.535 0-2.535.305-3.172.637v-.722c.637-.332 1.637-.637 3.172-.637 1.469 0 2.441.273 3.082.59Zm-31.969-10.18-.187-.226h-.363l-2.403-2.867h-.41l-2.406-2.664-.508.113-.512-.113-2.406 2.664h-.414l-.074.09v-.602l.074-.086h.414l2.406-2.668.512.114.508-.114 2.406 2.668h.41l2.403 2.86h.363l.215.258Zm-.062 1.47-.125-.141h-.363l-2.403-2.707h-.41l-2.406-2.516-.508.117-.512-.117-2.406 2.516h-.414l-.074.086v-.61l.074-.085h.414l2.406-2.516.512.117.508-.117 2.406 2.516h.41l2.403 2.703h.363l.152.172Zm-.035.906v.594l-.09-.094h-.363l-2.403-2.54h-.41l-2.406-2.359-.508.114-.512-.114-2.406 2.36h-.414l-.074.082v-.617l.074-.079h.414l2.406-2.363.512.117.508-.117 2.406 2.363h.41l2.403 2.536h.363l.09.093Zm0 2.137-.09-.09h-.363l-2.403-2.375h-.41l-2.406-2.203-.508.113-.512-.113-2.406 2.203h-.414l-.074.082v-.621l.074-.082h.414l2.406-2.204.512.118.508-.118 2.406 2.204h.41l2.403 2.379h.363l.09.085Zm0 1.542-.09-.082h-.363l-2.403-2.21h-.41l-2.406-2.051-.508.11-.512-.11-2.406 2.05h-.414l-.074.07v-.624l.074-.07h.414l2.406-2.051.512.113.508-.113 2.406 2.05h.41l2.403 2.211h.363l.09.079Zm0 1.547-.09-.082h-.363l-2.403-2.039h-.41l-2.406-1.906-.508.121-.512-.121-2.406 1.906h-.414l-.074.063v-.633l.074-.066h.414l2.406-1.895.512.11.508-.11 2.406 1.895h.41l2.403 2.046h.363l.09.079Zm0 1.536-.09-.063h-.363l-2.403-1.883h-.41l-2.406-1.75-.508.117-.512-.117-2.406 1.75h-.414l-.074.055v-.637l.074-.058h.414l2.406-1.739.512.11.508-.11 2.406 1.739h.41l2.403 1.886h.363l.09.067Zm0 1.546-.09-.062h-.363l-2.403-1.715h-.41l-2.406-1.598-.508.118-.512-.118-2.406 1.598h-.414l-.074.05v-.64l.074-.054h.414l2.406-1.59.512.113.508-.113 2.406 1.59h.41l2.403 1.718h.363l.09.063Zm0 1.543-.09-.058h-.363l-2.403-1.547h-.41l-2.406-1.441-.508.113-.512-.113-2.406 1.44h-.414l-.074.048v-.649l.074-.05h.414l2.406-1.438.512.117.508-.117 2.406 1.438h.41l2.403 1.558h.363l.09.05Zm0 1.54-.09-.047h-.363l-2.403-1.387h-.41l-2.406-1.285-.508.117-.512-.117-2.406 1.285h-.414l-.074.039v-.645l.074-.047h.414l2.406-1.285.512.118.508-.118 2.406 1.286h.41l2.403 1.386h.363l.09.055Zm0 1.55-.09-.05h-.363l-2.403-1.22h-.41l-2.406-1.132-.508.117-.512-.117-2.406 1.133h-.414l-.074.035v-.656l.074-.04h.414l2.406-1.128.512.113.508-.113 2.406 1.129h.41l2.403 1.222h.363l.09.047Zm0 1.54-.09-.036h-.363l-2.403-1.062h-.41l-2.406-.98-.508.116-.512-.117-2.406.98h-.414l-.074.032v-.66l.074-.032h.414l2.406-.976.512.113.508-.113 2.406.976h.41l2.403 1.06h.363l.09.038Zm0 1.542-.09-.031h-.363l-2.403-.895h-.41l-2.406-.828-.508.118-.512-.118-2.406.828h-.414l-.074.028v-.664l.074-.031h.414l2.406-.82.512.109.508-.11 2.406.82h.41l2.403.895h.363l.09.031Zm0 1.543-.09-.027h-.363l-2.403-.727h-.41l-2.406-.672-.508.114-.512-.114-2.406.672h-.414l-.074.02v-.672l.074-.02h.414l2.406-.675.512.117.508-.117 2.406.675h.41l2.403.727h.363l.09.031Zm0 1.547-.09-.023h-.363l-2.403-.567h-.41l-2.406-.515-.508.117-.512-.117-2.406.515h-.414l-.074.016v-.672l.074-.02h.414l2.406-.52.512.118.508-.117 2.406.52h.41l2.403.566h.363l.09.02Zm0 1.535-.09-.011h-.363l-2.403-.399h-.41l-2.406-.363-.508.11-.512-.11-2.406.363h-.414l-.074.012v-.684l.074-.012h.414l2.406-.363.512.117.508-.117 2.406.363h.41l2.403.399h.363l.09.016Zm-34.41-25.363-.153-.059h.152Zm.667 20.703h-.332v-.273h.332Zm.391-.273v-.47h.281v.743h-.328v-.273Zm.281-17.243h-.28v-.742h.28Zm-.28 15.52h.28v.742h-.28Zm.28-1.254v.742h-.28v-.742Zm0-1.25v.746h-.28v-.746Zm0-1.25v.742h-.28v-.742Zm0-1.25v.746h-.28v-.746Zm0-1.246v.738h-.28V204Zm0-1.254v.742h-.28v-.742Zm0-1.254v.742h-.28v-.742Zm0-1.25v.742h-.28v-.742Zm0-1.254v.746h-.28v-.746Zm0-1.246v.742h-.28v-.742Zm0-1.254v.746h-.28v-.746Zm-.28-1.254h.28v.75h-.28Zm0 20.657v-.637h.28v.637Zm-1.06-3.137v.59l-.238-.137v-.453Zm0-.508h-.238v-.273h.238Zm.668 1.25h-.332v-.742h.332Zm.344 0v-.742h.328v.742Zm.047.508h.281v.746h-.28Zm81.559 3.539h-7.196v-29.617h-2.832v-.399h-1.082v-3.289h-4.828v-8.27c0-.023-.023-.05-.05-.05a.052.052 0 0 0-.051.05v8.27h-.102v7.91c-.644-.468-1.625-.886-3.082-.886-1.531 0-2.535.46-3.172.965v-10.961h-.394v-2.2a.234.234 0 0 0 .226-.234.234.234 0 0 0-.226-.234.232.232 0 0 0-.23.234l-4.981-1.883c.007-.027.015-.05.015-.086a.234.234 0 0 0-.234-.23.23.23 0 0 0-.227.23c0 .035.008.059.02.086l-4.988 1.883a.234.234 0 0 0-.227-.234.23.23 0 0 0-.23.234.23.23 0 0 0 .23.234v2.2h-.398v28.254h-.954v-13.262l-.19-4.504h-.145l-.45-4.957h-.23l-.29-4.723h-.64v2.625h-.816v-2.625h-7.688v2.625h-.812v-2.625h-.653l-.285 4.723h-.23l-.39 4.312-.485-.613h-.363l-2.403-3.039h-.41l-2.406-2.812-.508.109-.512-.11-2.406 2.813h-.414l-.2.258h-.245v-8.977h-.188v-.488h-.172v-1.055h-.226v-1.78h-.164v-3.134h-.153l-.02-2.14s-.003-.114-.062-.114c-.062 0-.07.114-.07.114l-.02 2.14h-.152v3.133h-.164v1.781h-.227v1.055h-.18v.488h-11.628v-.488h-.176v-1.055h-.23v-1.78h-.165v-3.134h-.152l-.02-2.14s-.003-.114-.062-.114c-.062 0-.07.114-.07.114l-.02 2.14h-.152v3.133h-.164v1.781h-.227v1.055h-.172v.488h-.183v7.246h-1.586v-1.777h-4.176v-4.617c.035.047.09.09.156.133.07.035.13.05.18.05.125 0 .211-.078.305-.175.043-.04.09-.086.148-.133.106-.086.149-.149.14-.211-.007-.078-.089-.125-.195-.18-.023-.015-.054-.031-.085-.05-.196-.118-.301-.274-.356-.544a.755.755 0 0 0-.293-.43v-.429a.093.093 0 0 0 .02-.055c0-.043-.036-.082-.078-.082a.083.083 0 0 0-.083.082c0 .02.008.04.024.055v6.586h-1.926v1.777h-2.765v5.18h-7.461l-1.942.758v.902h-.094v19.149h1.293v1.234l-1.293.754v1.93h-.668v-28.73h-.808v-1.333h-6.156v1.332h-.805v30.383h-7.195a2.696 2.696 0 0 0-2.696 2.695h114.473a2.696 2.696 0 0 0-2.695-2.695"/></g><g clip-path="url(#e)"><path d="M177.48 162.613h20.844l.582-15.73 3.938-4.762 2.476-11.976-6.558 5.77-4.813-4.618-8.89-1.875 5.394 6.492 2.914 7.649 1.457 1.59-2.332 1.152.149 11.832-1.895-13.274-3.062-.289 4.082-2.597-9.04-13.707-6.265-2.454 1.601-.722 1.313-2.02-.438-2.164 3.79 3.461 6.558-1.586.73-3.898-13.554-6.059-9.766 14.285 12.973 18.473Zm0 0"/></g><g clip-path="url(#f)"><path d="m183.46 105.613-5.394 7.07 7.145 3.032 4.078-6.785Zm0 0"/></g><path d="m190.164 109.363-4.226 6.496 4.957 2.739-.73 3.609 2.624-1.73 4.664-6.641ZM197.016 115.57l6.414 4.328-9.04 10.97-5.827-2.743Zm0 0"/><g clip-path="url(#g)"><path d="m204.156 120.477 4.516 5.77-9.91 8.804-3.934-3.465Zm0 0"/></g><path d="m188.996 124.227-2.476 4.187-4.083-2.309Zm0 0"/></svg>